<?xml version="1.0" standalone="no"?>
<!DOCTYPE svg PUBLIC "-//W3C//DTD SVG 20010904//EN"
 "http://www.w3.org/TR/2001/REC-SVG-20010904/DTD/svg10.dtd">
<svg version="1.0" xmlns="http://www.w3.org/2000/svg"
 width="512.000000pt" height="512.000000pt" viewBox="0 0 512.000000 512.000000"
 preserveAspectRatio="xMidYMid meet">

<g transform="translate(0.000000,512.000000) scale(0.100000,-0.100000)"
fill="#000000" stroke="none">
<path d="M1777 4873 c-18 -47 -85 -229 -463 -1268 -290 -796 -302 -831 -287
-854 9 -14 97 -125 196 -248 l180 -223 1088 0 c865 0 1089 3 1089 13 0 13
-352 456 -373 469 -7 4 -359 8 -783 8 -626 0 -774 2 -782 13 -9 10 5 61 54
203 36 104 115 331 174 504 60 173 150 434 200 580 51 146 95 276 97 290 4 21
-31 75 -176 280 -100 139 -181 257 -181 262 0 21 -19 4 -33 -29z"/>
<path d="M3340 4901 c0 -5 -120 -115 -267 -244 -383 -336 -332 -269 -434 -567
-159 -466 -277 -804 -294 -850 -34 -91 -49 -85 196 -88 l216 -2 124 96 c218
170 233 185 257 256 11 35 60 176 107 313 47 138 107 311 132 385 25 74 50
140 55 145 6 6 167 12 426 15 l417 5 95 73 c238 183 232 177 280 298 24 60 47
113 52 118 4 6 8 20 8 33 l0 23 -685 0 c-403 0 -685 -4 -685 -9z"/>
<path d="M1992 1887 c-10 -11 -108 -289 -197 -552 -13 -38 -57 -167 -98 -285
-249 -719 -298 -863 -293 -876 4 -11 45 -14 221 -14 l215 0 113 101 c168 152
247 230 261 258 7 15 36 94 64 176 28 83 88 256 133 385 44 129 97 283 116
341 l36 106 -128 174 c-70 96 -135 180 -143 187 -23 18 -285 17 -300 -1z"/>
</g>
</svg>
